<svg xmlns="http://www.w3.org/2000/svg" viewBox="0 0 395 395">
    <path
        fill="#b86f52"
        d="M19.664 170.204s.655-3.856 6.266-3.446c4.634.339 4.265 5.2 4.265 5.2 2.633 39.979 21.063 70.21 21.063 70.21s-36.274-19.308-31.594-71.964M68 81.74s-3.914 6.2 2.715 10.79c7.799 5.401 12.497-.26 12.497-.26s22.94-39.58 78.984-54.41c62.286-16.482 128.715 5.265 128.715 5.265s-32.6-41.88-115.843-32.179C101.817 19.483 68 81.74 68 81.74"
    />
    <path
        fill="#b86f52"
        d="M38.244 98.38q1.968-.257 4.01-.258c17.114 0 31.008 13.895 31.008 31.009s-13.894 31.008-31.008 31.008c-26.309 0-54.461-31.126-18.138-87.76 11.882-18.52 33.8-38.704 52.655-49.5C111.41 3.049 144.055 1 144.055 1S72.278 24.758 38.245 98.379M251.201 349.462s-3.667 1.36-6.117-3.703c-2.023-4.183 2.371-6.294 2.371-6.294 33.306-22.27 50.271-53.345 50.271-53.345s1.417 41.068-46.525 63.342M149.832 351.139s7.327.29 7.988-7.747c.778-9.454-6.474-10.693-6.474-10.693s-45.748-.076-86.614-41.197C19.316 245.802 4.935 177.4 4.935 177.4s-19.97 49.173 30.054 116.413c44.02 59.168 114.843 57.327 114.843 57.327"
    />
    <path
        fill="#b86f52"
        d="M179.118 368.59a31 31 0 0 1-2.227-3.343c-8.558-14.822-3.471-33.802 11.35-42.359s33.801-3.471 42.358 11.35c13.155 22.784.275 62.728-66.934 59.588-21.979-1.03-50.418-9.92-69.196-20.85-34.491-20.082-52.588-47.33-52.588-47.33s56.463 50.281 137.237 42.945M293.376 59.948s3.011 2.495-.149 7.15c-2.61 3.843-6.637 1.092-6.637 1.092-35.938-17.708-71.333-16.863-71.333-16.863s34.858-21.76 78.119 8.62M347.41 146.734s-3.414-6.49-10.704-3.044c-8.576 4.053-6.023 10.952-6.023 10.952s22.808 39.658 7.63 95.608c-16.87 62.183-68.919 108.838-68.919 108.838s52.57-7.292 85.79-84.234c29.232-67.706-7.775-128.12-7.775-128.12"
    />
    <path
        fill="#b86f52"
        d="M347.874 112.648a31 31 0 0 1-1.782 3.6c-8.557 14.823-27.537 19.908-42.358 11.35-14.822-8.556-19.907-27.536-11.35-42.358 13.154-22.784 54.186-31.601 85.071 28.173 10.098 19.55 16.62 48.623 16.541 70.35-.145 39.912-14.694 69.209-14.694 69.209s15.313-74.04-31.428-140.324"
    />
</svg>
