<svg xmlns="http://www.w3.org/2000/svg" viewBox="0 0 384 384">
    <path
        d="M56.245 171.163s.499-2.941 4.785-2.629c3.534.258 3.255 3.969 3.255 3.969 2.009 30.519 16.078 53.594 16.078 53.594s-27.691-14.738-24.118-54.934M93.144 103.633s-2.989 4.733 2.072 8.238c5.955 4.122 9.54-.199 9.54-.199s17.511-30.214 60.293-41.535c47.546-12.581 98.256 4.019 98.256 4.019s-24.886-31.969-88.43-24.563c-55.919 6.517-81.731 54.04-81.731 54.04"
        style="fill:#b86f52"
    />
    <path
        d="M70.433 116.335a24 24 0 0 1 3.059-.196c13.065 0 23.671 10.606 23.671 23.67S86.557 163.48 73.492 163.48c-20.081 0-41.573-23.76-13.845-66.993 9.068-14.137 25.8-29.544 40.196-37.786C126.284 43.564 151.204 42 151.204 42s-54.793 18.135-80.771 74.335M232.993 308.005s-2.797 1.038-4.669-2.83c-1.543-3.189 1.81-4.802 1.81-4.802 25.425-17 38.375-40.722 38.375-40.722s1.081 31.35-35.516 48.354M155.613 309.285s5.593.222 6.097-5.914c.593-7.218-4.941-8.162-4.941-8.162s-34.922-.058-66.118-31.448c-34.668-34.885-45.647-87.102-45.647-87.102s-15.243 37.537 22.943 88.865c33.603 45.168 87.666 43.761 87.666 43.761"
        style="fill:#b86f52"
    />
    <path
        d="M177.968 322.603a24 24 0 0 1-1.7-2.552c-6.532-11.314-2.65-25.803 8.664-32.335s25.803-2.65 32.335 8.664c10.041 17.391.21 47.884-51.095 45.487-16.777-.784-38.486-7.571-52.821-15.918-26.33-15.33-40.144-36.129-40.144-36.129s43.102 38.384 104.761 32.783M265.191 86.998s2.298 1.903-.116 5.459c-1.99 2.931-5.064.833-5.064.833-27.435-13.519-54.453-12.873-54.453-12.873s26.609-16.611 59.633 6.581M306.437 153.248s-2.605-4.955-8.17-2.324c-6.548 3.096-4.598 8.361-4.598 8.361s17.411 30.272 5.824 72.983c-12.878 47.467-52.609 83.082-52.609 83.082s40.129-5.567 65.488-64.301c22.315-51.685-5.935-97.801-5.935-97.801"
        style="fill:#b86f52"
    />
    <path
        d="M306.792 127.229q-.582 1.4-1.36 2.748c-6.532 11.314-21.021 15.196-32.335 8.664s-15.196-21.021-8.664-32.335c10.041-17.391 41.364-24.124 64.94 21.506 7.71 14.921 12.687 37.116 12.626 53.704-.111 30.467-11.217 52.83-11.217 52.83s11.691-56.52-23.99-107.117"
        style="fill:#b86f52"
    />
</svg>
